<svg width="48" height="48" viewBox="0 0 48 48" fill="none" xmlns="http://www.w3.org/2000/svg">
<path d="M33.75 16.5H27C26.4178 16.5 25.8437 16.6355 25.3229 16.8959C24.8022 17.1563 24.3493 17.5343 24 18C23.6507 17.5343 23.1978 17.1563 22.6771 16.8959C22.1563 16.6355 21.5822 16.5 21 16.5H14.25C14.0511 16.5 13.8603 16.579 13.7197 16.7197C13.579 16.8603 13.5 17.0511 13.5 17.25V30.75C13.5 30.9489 13.579 31.1397 13.7197 31.2803C13.8603 31.421 14.0511 31.5 14.25 31.5H21C21.5967 31.5 22.169 31.7371 22.591 32.159C23.0129 32.581 23.25 33.1533 23.25 33.75C23.25 33.9489 23.329 34.1397 23.4697 34.2803C23.6103 34.421 23.8011 34.5 24 34.5C24.1989 34.5 24.3897 34.421 24.5303 34.2803C24.671 34.1397 24.75 33.9489 24.75 33.75C24.75 33.1533 24.9871 32.581 25.409 32.159C25.831 31.7371 26.4033 31.5 27 31.5H33.75C33.9489 31.5 34.1397 31.421 34.2803 31.2803C34.421 31.1397 34.5 30.9489 34.5 30.75V17.25C34.5 17.0511 34.421 16.8603 34.2803 16.7197C34.1397 16.579 33.9489 16.5 33.75 16.5ZM21 30H15V18H21C21.5967 18 22.169 18.2371 22.591 18.659C23.0129 19.081 23.25 19.6533 23.25 20.25V30.75C22.6015 30.262 21.8116 29.9987 21 30ZM33 30H27C26.1884 29.9987 25.3985 30.262 24.75 30.75V20.25C24.75 19.6533 24.9871 19.081 25.409 18.659C25.831 18.2371 26.4033 18 27 18H33V30Z" fill="white"/>
</svg>
