<svg width="64" height="64" viewBox="0 0 64 64" fill="none" xmlns="http://www.w3.org/2000/svg">
<rect width="64" height="64" rx="16" fill="#202125"/>
<path d="M46 30C45.998 28.1441 45.2599 26.3648 43.9476 25.0524C42.6353 23.7401 40.8559 23.002 39 23C38.7788 23 38.5575 23.0125 38.3388 23.0325C37.7744 21.8278 36.8784 20.809 35.7557 20.0952C34.6331 19.3815 33.3303 19.0024 32 19.0024C30.6697 19.0024 29.3669 19.3815 28.2443 20.0952C27.1217 20.809 26.2257 21.8278 25.6613 23.0325C25.4425 23.0125 25.2213 23 25 23C23.411 23.0004 21.8694 23.5414 20.6286 24.5341C19.3878 25.5268 18.5217 26.9121 18.1727 28.4624C17.8236 30.0126 18.0124 31.6354 18.708 33.0641C19.4035 34.4928 20.5645 35.6423 22 36.3237V42C22 42.5304 22.2107 43.0391 22.5858 43.4142C22.9609 43.7893 23.4696 44 24 44H40C40.5305 44 41.0392 43.7893 41.4142 43.4142C41.7893 43.0391 42 42.5304 42 42V36.3237C43.1959 35.755 44.2063 34.8592 44.9141 33.7401C45.622 32.6209 45.9985 31.3242 46 30ZM40 42H24V36.9275C24.3312 36.9757 24.6654 37 25 37H39C39.3347 37 39.6689 36.9757 40 36.9275V42ZM39 35H37.2813L37.97 32.2425C38.0293 31.987 37.9858 31.7185 37.8489 31.4948C37.7121 31.2711 37.4928 31.1101 37.2384 31.0465C36.984 30.9829 36.7148 31.0218 36.4887 31.1547C36.2627 31.2877 36.098 31.5042 36.03 31.7575L35.2188 35H33V32C33 31.7348 32.8947 31.4804 32.7071 31.2929C32.5196 31.1053 32.2652 31 32 31C31.7348 31 31.4804 31.1053 31.2929 31.2929C31.1054 31.4804 31 31.7348 31 32V35H28.7813L27.97 31.7575C27.94 31.6282 27.8846 31.5061 27.8069 31.3984C27.7293 31.2907 27.6309 31.1996 27.5177 31.1303C27.4044 31.061 27.2785 31.015 27.1473 30.9949C27.0161 30.9748 26.8821 30.981 26.7533 31.0132C26.6245 31.0454 26.5034 31.1029 26.3971 31.1824C26.2908 31.2619 26.2013 31.3618 26.134 31.4762C26.0667 31.5907 26.0228 31.7173 26.0049 31.8489C25.9871 31.9805 25.9956 32.1143 26.03 32.2425L26.7188 35H25C23.6739 35 22.4022 34.4732 21.4645 33.5355C20.5268 32.5978 20 31.3261 20 30C20 28.6739 20.5268 27.4021 21.4645 26.4645C22.4022 25.5268 23.6739 25 25 25H25.0725C25.0241 25.3311 24.9999 25.6653 25 26C25 26.2652 25.1054 26.5196 25.2929 26.7071C25.4804 26.8946 25.7348 27 26 27C26.2652 27 26.5196 26.8946 26.7071 26.7071C26.8947 26.5196 27 26.2652 27 26C27 24.6739 27.5268 23.4021 28.4645 22.4645C29.4022 21.5268 30.6739 21 32 21C33.3261 21 34.5979 21.5268 35.5356 22.4645C36.4732 23.4021 37 24.6739 37 26C37 26.2652 37.1054 26.5196 37.2929 26.7071C37.4804 26.8946 37.7348 27 38 27C38.2652 27 38.5196 26.8946 38.7071 26.7071C38.8947 26.5196 39 26.2652 39 26C39.0001 25.6653 38.9759 25.3311 38.9275 25H39C40.3261 25 41.5979 25.5268 42.5356 26.4645C43.4732 27.4021 44 28.6739 44 30C44 31.3261 43.4732 32.5978 42.5356 33.5355C41.5979 34.4732 40.3261 35 39 35Z" fill="white"/>
</svg>
