<svg width="136" height="48" viewBox="0 0 136 48" fill="none" xmlns="http://www.w3.org/2000/svg">
<path d="M5 5H23V23H5V5Z" fill="#FEECBA"/>
<path d="M32 28C32 30.761 29.762 33 27 33H18C15.239 33 13 30.761 13 28V19C13 16.239 15.239 14 18 14H27C29.762 14 32 16.239 32 19V28Z" fill="#EFECFE"/>
<path d="M33 23C31.6868 23 30.3864 23.2587 29.1732 23.7612C27.9599 24.2638 26.8575 25.0003 25.9289 25.9289C25.0003 26.8575 24.2638 27.9599 23.7612 29.1732C23.2587 30.3864 23 31.6868 23 33C23 34.3132 23.2587 35.6136 23.7612 36.8268C24.2638 38.0401 25.0003 39.1425 25.9289 40.0711C26.8575 40.9997 27.9599 41.7362 29.1732 42.2388C30.3864 42.7413 31.6868 43 33 43C34.3132 43 35.6136 42.7413 36.8268 42.2388C38.0401 41.7362 39.1425 40.9997 40.0711 40.0711C40.9997 39.1425 41.7362 38.0401 42.2388 36.8268C42.7413 35.6136 43 34.3132 43 33C43 31.6868 42.7413 30.3864 42.2388 29.1732C41.7362 27.9599 40.9997 26.8575 40.0711 25.9289C39.1425 25.0003 38.0401 24.2638 36.8268 23.7612C35.6136 23.2587 34.3132 23 33 23Z" fill="#D6D0FD"/>
<path d="M59.696 30.128L56.6 15.92H59.048L61.856 29.384C61.928 29.744 62.048 29.912 62.24 29.912C62.432 29.912 62.576 29.768 62.648 29.384L65.312 17.936C65.624 16.448 66.44 15.776 67.544 15.776C68.672 15.776 69.464 16.424 69.8 17.912L72.56 29.384C72.656 29.72 72.752 29.888 72.968 29.888C73.184 29.888 73.28 29.72 73.328 29.384L75.92 15.92H78.368L75.512 29.984C75.224 31.4 74.408 32.288 73.088 32.288C71.816 32.288 70.928 31.52 70.568 30.056L67.784 18.44C67.736 18.224 67.664 18.128 67.544 18.128C67.448 18.128 67.352 18.224 67.304 18.44L64.592 30.2C64.28 31.544 63.344 32.312 62.192 32.312C60.944 32.312 60.008 31.544 59.696 30.128ZM85.5828 32.264C82.0068 32.264 79.3428 29.672 79.3428 26.048C79.3428 22.664 81.7668 19.904 85.2948 19.904C88.8468 19.904 91.0548 22.472 91.0548 25.76V26.72L81.6468 26.72C81.9108 28.736 83.4468 30.152 85.5588 30.152C86.9988 30.152 88.2948 29.528 88.9908 28.232L90.8148 29.168C89.7828 31.184 87.8868 32.264 85.5828 32.264ZM81.7428 25.184L88.6788 25.184C88.5828 23.312 87.2148 22.04 85.2708 22.04C83.2788 22.04 81.9828 23.432 81.7428 25.184ZM94.3715 14.84L96.7475 14.84V32H94.3715V14.84ZM101.098 14.84H103.474V32H101.098V14.84ZM109.001 17.912C108.137 17.912 107.441 17.216 107.441 16.352C107.441 15.488 108.137 14.768 109.001 14.768C109.865 14.768 110.537 15.488 110.537 16.352C110.537 17.216 109.865 17.912 109.001 17.912ZM107.825 20.24H110.201V32H107.825V20.24ZM117.695 32H115.319V22.304H113.087V20.24H115.319V19.016C115.319 16.52 116.879 14.648 119.831 14.648C120.623 14.648 121.367 14.792 121.967 15.08V17.336C121.415 17 120.719 16.808 120.047 16.808C118.583 16.808 117.695 17.456 117.695 19.016V20.24H121.823V22.304H117.695V32ZM129.153 32.264C125.577 32.264 122.913 29.672 122.913 26.048C122.913 22.664 125.337 19.904 128.865 19.904C132.417 19.904 134.625 22.472 134.625 25.76V26.72H125.217C125.481 28.736 127.017 30.152 129.129 30.152C130.569 30.152 131.865 29.528 132.561 28.232L134.385 29.168C133.353 31.184 131.457 32.264 129.153 32.264ZM125.313 25.184H132.249C132.153 23.312 130.785 22.04 128.841 22.04C126.849 22.04 125.553 23.432 125.313 25.184Z" fill="#202125"/>
</svg>
