<svg width="64" height="64" viewBox="0 0 64 64" fill="none" xmlns="http://www.w3.org/2000/svg">
<rect width="64" height="64" rx="16" fill="#FEECBA"/>
<path d="M35 27C35.7911 27 36.5645 26.7654 37.2223 26.3259C37.8801 25.8864 38.3928 25.2616 38.6955 24.5307C38.9983 23.7998 39.0775 22.9956 38.9231 22.2196C38.7688 21.4437 38.3878 20.731 37.8284 20.1716C37.269 19.6122 36.5563 19.2312 35.7803 19.0769C35.0044 18.9225 34.2002 19.0017 33.4693 19.3045C32.7383 19.6072 32.1136 20.1199 31.6741 20.7777C31.2346 21.4355 31 22.2089 31 23C31 24.0609 31.4214 25.0783 32.1716 25.8284C32.9217 26.5786 33.9391 27 35 27ZM35 21C35.3955 21 35.7822 21.1173 36.1111 21.3371C36.44 21.5568 36.6964 21.8692 36.8477 22.2346C36.9991 22.6001 37.0387 23.0022 36.9616 23.3902C36.8844 23.7781 36.6939 24.1345 36.4142 24.4142C36.1345 24.6939 35.7781 24.8844 35.3902 24.9616C35.0022 25.0387 34.6001 24.9991 34.2346 24.8478C33.8692 24.6964 33.5568 24.44 33.337 24.1111C33.1173 23.7822 33 23.3956 33 23C33 22.4696 33.2107 21.9609 33.5858 21.5858C33.9608 21.2107 34.4696 21 35 21ZM43.4137 33.585C43.3375 33.62 42.4775 33.995 40.955 33.995C39.2237 33.995 36.6362 33.51 33.3687 31.495C32.8714 32.9068 32.2257 34.2619 31.4425 35.5375C32.8493 35.9706 34.1726 36.6388 35.3562 37.5138C37.74 39.3313 39 41.9188 39 45C39 45.2652 38.8946 45.5196 38.7071 45.7071C38.5196 45.8946 38.2652 46 38 46C37.7348 46 37.4804 45.8946 37.2929 45.7071C37.1053 45.5196 37 45.2652 37 45C37 39.7875 32.6637 37.9113 30.2325 37.2688C30.1637 37.3563 30.0925 37.445 30.0212 37.5313C27.5662 40.5063 24.49 42.0538 21.0675 42.0538C20.6777 42.0556 20.288 42.0376 19.9 42C19.6348 41.9735 19.391 41.8427 19.2222 41.6364C19.0534 41.4301 18.9735 41.1652 19 40.9C19.0265 40.6348 19.1573 40.391 19.3636 40.2222C19.5699 40.0534 19.8348 39.9735 20.1 40C23.34 40.3225 26.1587 39.0638 28.475 36.25C30.0362 34.3575 31.1 32.0488 31.6312 30.375C26.7662 27.5438 23.6587 29.9538 23.625 29.98C23.5231 30.067 23.4048 30.1326 23.2771 30.173C23.1494 30.2134 23.0149 30.2277 22.8815 30.2151C22.7481 30.2025 22.6187 30.1632 22.5008 30.0996C22.3829 30.036 22.279 29.9494 22.1952 29.8448C22.1115 29.7403 22.0496 29.62 22.0132 29.4911C21.9768 29.3622 21.9667 29.2273 21.9835 29.0944C22.0002 28.9615 22.0435 28.8333 22.1108 28.7175C22.178 28.6016 22.2679 28.5005 22.375 28.42C22.5625 28.27 27.0275 24.795 33.5637 29.2413C39.2475 33.105 42.555 31.78 42.5862 31.765C42.706 31.7084 42.8359 31.6762 42.9683 31.6703C43.1006 31.6643 43.2328 31.6847 43.3572 31.7303C43.4816 31.7758 43.5958 31.8457 43.6929 31.9357C43.7901 32.0258 43.8684 32.1342 43.9234 32.2548C43.9783 32.3754 44.0087 32.5057 44.0128 32.6381C44.0169 32.7705 43.9947 32.9025 43.9474 33.0262C43.9001 33.15 43.8287 33.2631 43.7373 33.359C43.6459 33.455 43.5363 33.5318 43.415 33.585H43.4137Z" fill="#202125"/>
</svg>
