<svg width="40" height="40" viewBox="0 0 40 40" fill="none" xmlns="http://www.w3.org/2000/svg">
<rect width="40" height="40" rx="20" fill="#D6D0FD"/>
<path d="M29.3975 28.6025L24.5806 23.7856C25.9542 22.206 26.6608 20.1547 26.5515 18.0642C26.4422 15.9737 25.5255 14.0074 23.9946 12.5796C22.4638 11.1518 20.4384 10.3742 18.3453 10.4106C16.2523 10.4471 14.2552 11.2948 12.775 12.775C11.2948 14.2552 10.4471 16.2523 10.4106 18.3453C10.3742 20.4384 11.1518 22.4638 12.5796 23.9946C14.0074 25.5255 15.9737 26.4422 18.0642 26.5515C20.1547 26.6608 22.206 25.9542 23.7856 24.5806L28.6025 29.3975C28.7091 29.4969 28.8502 29.551 28.9959 29.5484C29.1416 29.5458 29.2807 29.4868 29.3837 29.3837C29.4868 29.2807 29.5458 29.1416 29.5484 28.9959C29.551 28.8502 29.4969 28.7091 29.3975 28.6025ZM11.5625 18.5C11.5625 17.1279 11.9694 15.7866 12.7317 14.6457C13.494 13.5049 14.5775 12.6157 15.8451 12.0906C17.1128 11.5655 18.5077 11.4281 19.8534 11.6958C21.1992 11.9635 22.4353 12.6242 23.4056 13.5945C24.3758 14.5647 25.0365 15.8008 25.3042 17.1466C25.5719 18.4923 25.4345 19.8872 24.9094 21.1549C24.3843 22.4225 23.4951 23.506 22.3543 24.2683C21.2134 25.0306 19.8721 25.4375 18.5 25.4375C16.6608 25.4353 14.8975 24.7036 13.5969 23.4031C12.2964 22.1025 11.5647 20.3393 11.5625 18.5Z" fill="#343330"/>
</svg>
