<svg width="40" height="40" viewBox="0 0 40 40" fill="none" xmlns="http://www.w3.org/2000/svg">
<rect width="40" height="40" rx="20" fill="#FEECBA"/>
<path d="M19.9999 15.6875C19.147 15.6875 18.3132 15.9404 17.604 16.4143C16.8948 16.8881 16.3421 17.5617 16.0157 18.3497C15.6893 19.1377 15.6039 20.0048 15.7703 20.8413C15.9367 21.6779 16.3474 22.4463 16.9505 23.0494C17.5536 23.6525 18.322 24.0632 19.1586 24.2296C19.9951 24.396 20.8622 24.3106 21.6502 23.9842C22.4382 23.6578 23.1118 23.1051 23.5856 22.3959C24.0595 21.6867 24.3124 20.8529 24.3124 20C24.3109 18.8567 23.8561 17.7607 23.0477 16.9522C22.2392 16.1438 21.1432 15.689 19.9999 15.6875ZM19.9999 23.1875C19.3695 23.1875 18.7532 23.0006 18.229 22.6503C17.7049 22.3001 17.2963 21.8022 17.055 21.2198C16.8138 20.6374 16.7507 19.9965 16.8737 19.3781C16.9967 18.7598 17.3002 18.1919 17.746 17.7461C18.1918 17.3003 18.7597 16.9967 19.3781 16.8737C19.9964 16.7508 20.6373 16.8139 21.2197 17.0551C21.8022 17.2964 22.3 17.7049 22.6502 18.2291C23.0005 18.7533 23.1874 19.3696 23.1874 20C23.1874 20.8454 22.8516 21.6561 22.2538 22.2539C21.656 22.8517 20.8453 23.1875 19.9999 23.1875ZM28.0624 20.2662C28.068 20.0891 28.068 19.9109 28.0624 19.7337L29.4996 17.9375C29.5545 17.8687 29.5926 17.788 29.6106 17.7019C29.6287 17.6158 29.6263 17.5266 29.6037 17.4416C29.3788 16.5941 29.0421 15.7804 28.6024 15.0219C28.5587 14.9449 28.4975 14.8793 28.4237 14.8304C28.3499 14.7815 28.2657 14.7508 28.1777 14.7406L25.8855 14.4866C25.7649 14.3572 25.6399 14.2322 25.5105 14.1116L25.2555 11.8184C25.2454 11.7305 25.2146 11.6462 25.1657 11.5724C25.1169 11.4986 25.0513 11.4374 24.9743 11.3937C24.2167 10.9553 23.4043 10.6193 22.5584 10.3944C22.4731 10.3721 22.3838 10.3702 22.2977 10.3887C22.2115 10.4073 22.1309 10.4458 22.0624 10.5012L20.2624 11.9422C20.0852 11.9366 19.9071 11.9366 19.7299 11.9422L17.9374 10.5003C17.8687 10.4454 17.788 10.4073 17.7018 10.3893C17.6157 10.3712 17.5265 10.3736 17.4415 10.3962C16.594 10.6211 15.7803 10.9578 15.0218 11.3975C14.9448 11.4412 14.8792 11.5024 14.8303 11.5762C14.7815 11.65 14.7507 11.7343 14.7405 11.8222L14.4902 14.1144C14.3609 14.2356 14.2359 14.3606 14.1152 14.4894L11.8212 14.75C11.7332 14.7602 11.649 14.7909 11.5752 14.8398C11.5014 14.8887 11.4401 14.9543 11.3965 15.0312C10.9581 15.7889 10.622 16.6012 10.3971 17.4472C10.3754 17.5314 10.3734 17.6195 10.3915 17.7046C10.4096 17.7896 10.4471 17.8694 10.5012 17.9375L11.9421 19.7375C11.9365 19.9147 11.9365 20.0928 11.9421 20.27L10.5002 22.0672C10.4453 22.1359 10.4073 22.2166 10.3892 22.3028C10.3711 22.3889 10.3735 22.4781 10.3962 22.5631C10.6214 23.4089 10.9581 24.2211 11.3974 24.9781C11.4411 25.0551 11.5023 25.1207 11.5761 25.1696C11.6499 25.2184 11.7342 25.2492 11.8221 25.2594L14.1143 25.5134C14.2355 25.6428 14.3605 25.7678 14.4893 25.8884L14.7499 28.1787C14.7601 28.2667 14.7908 28.351 14.8397 28.4248C14.8886 28.4985 14.9542 28.5598 15.0312 28.6034C15.7888 29.0418 16.6012 29.3779 17.4471 29.6028C17.5321 29.6255 17.6213 29.6279 17.7075 29.6098C17.7936 29.5917 17.8743 29.5537 17.943 29.4987L19.7337 28.0625C19.9109 28.0681 20.089 28.0681 20.2662 28.0625L22.0671 29.5044C22.1669 29.584 22.2909 29.6273 22.4187 29.6272C22.4674 29.627 22.5159 29.6207 22.563 29.6084C23.4089 29.3832 24.221 29.0465 24.978 28.6072C25.055 28.5635 25.1206 28.5023 25.1695 28.4285C25.2184 28.3547 25.2491 28.2704 25.2593 28.1825L25.5134 25.8903C25.6427 25.7697 25.7677 25.6447 25.8884 25.5153L28.1815 25.2603C28.2694 25.2501 28.3537 25.2194 28.4275 25.1705C28.5013 25.1216 28.5625 25.056 28.6062 24.9791C29.0447 24.2215 29.3808 23.4091 29.6055 22.5631C29.6282 22.4781 29.6306 22.3889 29.6125 22.3028C29.5944 22.2166 29.5564 22.1359 29.5015 22.0672L28.0624 20.2662ZM27.7718 24.1691L25.5555 24.4156C25.4171 24.4316 25.2894 24.4984 25.1974 24.6031C25.0121 24.8119 24.8146 25.0094 24.6059 25.1947C24.5011 25.2867 24.4343 25.4143 24.4184 25.5528L24.1718 27.7681C23.6529 28.0448 23.1077 28.2691 22.5443 28.4375L20.8034 27.0444C20.7035 26.9647 20.5795 26.9214 20.4518 26.9216H20.418C20.1395 26.9375 19.8603 26.9375 19.5818 26.9216C19.4427 26.913 19.3054 26.9565 19.1965 27.0434L17.4565 28.4375C16.8936 28.2681 16.349 28.043 15.8309 27.7653L15.5843 25.5509C15.5683 25.4124 15.5015 25.2848 15.3968 25.1928C15.1881 25.0075 14.9905 24.81 14.8052 24.6012C14.7132 24.4965 14.5856 24.4297 14.4471 24.4137L12.2318 24.1672C11.9554 23.6498 11.7311 23.1062 11.5624 22.5444L12.9555 20.8034C13.0425 20.6945 13.0859 20.5572 13.0774 20.4181C13.0615 20.1396 13.0615 19.8604 13.0774 19.5819C13.0859 19.4428 13.0425 19.3055 12.9555 19.1966L11.5624 17.4566C11.7318 16.8936 11.957 16.3491 12.2346 15.8309L14.449 15.5844C14.5875 15.5684 14.7151 15.5016 14.8071 15.3969C14.9924 15.1881 15.1899 14.9906 15.3987 14.8053C15.5034 14.7133 15.5702 14.5857 15.5862 14.4472L15.8327 12.2319C16.3501 11.9554 16.8937 11.7312 17.4555 11.5625L19.1965 12.9556C19.3054 13.0426 19.4427 13.086 19.5818 13.0775C19.8603 13.0616 20.1395 13.0616 20.418 13.0775C20.5571 13.086 20.6944 13.0426 20.8034 12.9556L22.5434 11.5625C23.1063 11.7319 23.6508 11.957 24.169 12.2347L24.4155 14.4509C24.4315 14.5894 24.4983 14.717 24.603 14.8091C24.8118 14.9944 25.0093 15.1919 25.1946 15.4006C25.2866 15.5053 25.4142 15.5722 25.5527 15.5881L27.768 15.8347C28.0443 16.3515 28.2686 16.8945 28.4374 17.4556L27.0443 19.1966C26.9573 19.3055 26.9139 19.4428 26.9224 19.5819C26.9384 19.8604 26.9384 20.1396 26.9224 20.4181C26.9139 20.5572 26.9573 20.6945 27.0443 20.8034L28.4374 22.5434C28.2687 23.1063 28.0441 23.6509 27.7671 24.1691H27.7718Z" fill="#343330"/>
</svg>
