<svg width="14" height="21" viewBox="0 0 14 21" fill="none" xmlns="http://www.w3.org/2000/svg">
<path d="M13.75 5.59125V2.25C13.75 1.85218 13.592 1.47064 13.3107 1.18934C13.0294 0.908035 12.6478 0.75 12.25 0.75H1.75C1.35218 0.75 0.970644 0.908035 0.68934 1.18934C0.408035 1.47064 0.25 1.85218 0.25 2.25V5.625C0.250507 5.85778 0.304947 6.08727 0.409049 6.29548C0.51315 6.50368 0.664082 6.68493 0.85 6.825L5.75031 10.5L0.85 14.175C0.664082 14.3151 0.51315 14.4963 0.409049 14.7045C0.304947 14.9127 0.250507 15.1422 0.25 15.375V18.75C0.25 19.1478 0.408035 19.5294 0.68934 19.8107C0.970644 20.092 1.35218 20.25 1.75 20.25H12.25C12.6478 20.25 13.0294 20.092 13.3107 19.8107C13.592 19.5294 13.75 19.1478 13.75 18.75V15.4088C13.7495 15.1769 13.6955 14.9482 13.5922 14.7406C13.489 14.533 13.3393 14.3519 13.1547 14.2116L8.24406 10.5L13.1547 6.7875C13.3393 6.64742 13.4891 6.46658 13.5924 6.25908C13.6957 6.05158 13.7496 5.82303 13.75 5.59125ZM1.75 2.25H12.25V5.59125L11.7091 6H2.24969L1.75 5.625V2.25ZM7 9.5625L4.25031 7.5H9.72531L7 9.5625ZM12.25 18.75H1.75V15.375L6.25 12V14.25C6.25 14.4489 6.32902 14.6397 6.46967 14.7803C6.61032 14.921 6.80109 15 7 15C7.19891 15 7.38968 14.921 7.53033 14.7803C7.67098 14.6397 7.75 14.4489 7.75 14.25V12.0075L12.25 15.4088V18.75Z" fill="#8F8F8F"/>
</svg>
