<svg width="64" height="64" viewBox="0 0 64 64" fill="none" xmlns="http://www.w3.org/2000/svg">
<rect width="64" height="64" rx="16" fill="#D6D0FD"/>
<path d="M37.75 21.9687C36.206 20.1855 34.4682 18.5798 32.5688 17.1812C32.4006 17.0635 32.2003 17.0003 31.995 17.0003C31.7897 17.0003 31.5894 17.0635 31.4213 17.1812C29.5253 18.5804 27.7909 20.1861 26.25 21.9687C22.8138 25.915 21 30.075 21 34C21 36.9174 22.1589 39.7153 24.2218 41.7782C26.2847 43.8411 29.0826 45 32 45C34.9174 45 37.7153 43.8411 39.7782 41.7782C41.8411 39.7153 43 36.9174 43 34C43 30.075 41.1863 25.915 37.75 21.9687ZM32 43C29.6139 42.9973 27.3262 42.0483 25.639 40.361C23.9517 38.6738 23.0026 36.3861 23 34C23 26.8462 29.9338 20.875 32 19.25C34.0662 20.875 41 26.8437 41 34C40.9974 36.3861 40.0483 38.6738 38.361 40.361C36.6738 42.0483 34.3861 42.9973 32 43ZM38.9862 35.1675C38.7269 36.6159 38.0301 37.95 36.9896 38.9904C35.949 40.0307 34.6147 40.7273 33.1663 40.9862C33.1113 40.9951 33.0557 40.9996 33 41C32.7492 40.9999 32.5075 40.9056 32.323 40.7357C32.1384 40.5658 32.0245 40.3328 32.0037 40.0828C31.9829 39.8328 32.0569 39.5841 32.2108 39.3861C32.3648 39.1881 32.5876 39.0552 32.835 39.0137C34.9062 38.665 36.6637 36.9075 37.015 34.8325C37.0594 34.5709 37.2059 34.3377 37.4223 34.1842C37.6387 34.0306 37.9072 33.9693 38.1688 34.0137C38.4303 34.0582 38.6635 34.2047 38.8171 34.4211C38.9706 34.6374 39.0319 34.9059 38.9875 35.1675H38.9862Z" fill="#202125"/>
</svg>
