<svg width="48" height="48" viewBox="0 0 48 48" fill="none" xmlns="http://www.w3.org/2000/svg">
<rect width="48" height="48" rx="24" fill="#F9F9F9" fill-opacity="0.15"/>
<path d="M14.5 18.5C14.5 16.2909 16.2909 14.5 18.5 14.5C20.7091 14.5 22.5 16.2909 22.5 18.5C22.5 20.7091 20.7091 22.5 18.5 22.5C16.2909 22.5 14.5 20.7091 14.5 18.5Z" stroke="white" stroke-width="1.5"/>
<path d="M25.5 29.5C25.5 27.2909 27.2909 25.5 29.5 25.5C31.7091 25.5 33.5 27.2909 33.5 29.5C33.5 31.7091 31.7091 33.5 29.5 33.5C27.2909 33.5 25.5 31.7091 25.5 29.5Z" stroke="white" stroke-width="1.5"/>
<path d="M33.5 18.5C33.5 16.6144 33.5 15.6716 32.9142 15.0858C32.3284 14.5 31.3856 14.5 29.5 14.5C27.6144 14.5 26.6716 14.5 26.0858 15.0858C25.5 15.6716 25.5 16.6144 25.5 18.5C25.5 20.3856 25.5 21.3284 26.0858 21.9142C26.6716 22.5 27.6144 22.5 29.5 22.5C31.3856 22.5 32.3284 22.5 32.9142 21.9142C33.5 21.3284 33.5 20.3856 33.5 18.5Z" stroke="white" stroke-width="1.5"/>
<path d="M22.5 29.5C22.5 27.6144 22.5 26.6716 21.9142 26.0858C21.3284 25.5 20.3856 25.5 18.5 25.5C16.6144 25.5 15.6716 25.5 15.0858 26.0858C14.5 26.6716 14.5 27.6144 14.5 29.5C14.5 31.3856 14.5 32.3284 15.0858 32.9142C15.6716 33.5 16.6144 33.5 18.5 33.5C20.3856 33.5 21.3284 33.5 21.9142 32.9142C22.5 32.3284 22.5 31.3856 22.5 29.5Z" stroke="white" stroke-width="1.5"/>
</svg>
